<?xml version="1.0" encoding="UTF-8"?><svg id="Layer_1" xmlns="http://www.w3.org/2000/svg" viewBox="0 0 32 32"><path d="M25.88,4c1.17,0,2.12.95,2.12,2.12v19.76c0,1.17-.95,2.12-2.12,2.12H6.12c-1.17,0-2.12-.95-2.12-2.12V6.12c0-1.17.95-2.12,2.12-2.12h19.76M25.88,1H6.12C3.29,1,1,3.29,1,6.12v19.76c0,2.83,2.29,5.12,5.12,5.12h19.76c2.83,0,5.12-2.29,5.12-5.12V6.12c0-2.83-2.29-5.12-5.12-5.12h0Z" fill="#6a68d0"/><polyline points="7.78 13.53 15.35 21.67 24.22 10.45" fill="none" stroke="#6a68d0" stroke-linecap="round" stroke-linejoin="round" stroke-width="3"/></svg>